<svg xmlns="http://www.w3.org/2000/svg" style="display:none">
    <symbol id="hexagon" viewBox="0 0 24 24" fill="none" stroke="currentColor" stroke-width="2" stroke-linecap="round" stroke-linejoin="round">
        <path d="M21 16V8a2 2 0 0 0-1-1.73l-7-4a2 2 0 0 0-2 0l-7 4A2 2 0 0 0 3 8v8a2 2 0 0 0 1 1.73l7 4a2 2 0 0 0 2 0l7-4A2 2 0 0 0 21 16z"/>
    </symbol>
    <symbol id="sun" viewBox="0 0 24 24" fill="none" stroke="currentColor" stroke-width="2" stroke-linecap="round" stroke-linejoin="round">
        <circle cx="12" cy="12" r="4"/>
        <path d="M12 2v2"/>
        <path d="M12 20v2"/>
        <path d="m4.93 4.93 1.41 1.41"/>
        <path d="m17.66 17.66 1.41 1.41"/>
        <path d="M2 12h2"/>
        <path d="M20 12h2"/>
        <path d="m6.34 17.66-1.41 1.41"/>
        <path d="m19.07 4.93-1.41 1.41"/>
    </symbol>
    <symbol id="moon" viewBox="0 0 24 24" fill="none" stroke="currentColor" stroke-width="2" stroke-linecap="round" stroke-linejoin="round">
        <path d="M12 3a6 6 0 0 0 9 9 9 9 0 1 1-9-9Z"/>
    </symbol>
    <symbol id="github" viewBox="0 0 24 24" fill="currentColor">
        <path d="M12 .297c-6.63 0-12 5.373-12 12 0 5.303 3.438 9.8 8.205 11.385.6.113.82-.258.82-.577 0-.285-.01-1.04-.015-2.04-3.338.724-4.042-1.61-4.042-1.61C4.422 18.07 3.633 17.7 3.633 17.7c-1.087-.744.084-.729.084-.729 1.205.084 1.838 1.236 1.838 1.236 1.07 1.835 2.809 1.305 3.495.998.108-.776.417-1.305.76-1.605-2.665-.3-5.466-1.332-5.466-5.93 0-1.31.465-2.38 1.235-3.22-.135-.303-.54-1.523.105-3.176 0 0 1.005-.322 3.3 1.23.96-.267 1.98-.399 3-.405 1.02.006 2.04.138 3 .405 2.28-1.552 3.285-1.23 3.285-1.23.645 1.653.24 2.873.12 3.176.765.84 1.23 1.91 1.23 3.22 0 4.61-2.805 5.625-5.475 5.92.42.36.81 1.096.81 2.22 0 1.606-.015 2.896-.015 3.286 0 .315.21.69.825.57C20.565 22.092 24 17.592 24 12.297c0-6.627-5.373-12-12-12"/>
    </symbol>
    <symbol id="twitter-x" viewBox="0 0 24 24" fill="currentColor">
        <path d="M18.901 1.153h3.68l-8.04 9.19L24 22.846h-7.406l-5.8-7.584-6.638 7.584H.474l8.6-9.83L0 1.154h7.594l5.243 6.932ZM17.61 20.644h2.039L6.486 3.24H4.298Z"/>
    </symbol>
    <symbol id="bluesky" viewBox="0 0 24 24" fill="currentColor">
        <path d="M12 10.8c-1.087-2.114-4.046-6.053-6.798-7.995C2.566.944 1.561 1.266.902 1.565.139 1.908 0 3.08 0 3.768c0 .69.378 5.65.624 6.479.815 2.736 3.713 3.66 6.383 3.364.136-.02.275-.039.415-.056-.138.022-.276.04-.415.056-3.912.58-7.387 2.005-2.83 7.078 5.013 5.19 6.87-1.113 7.823-4.308.953 3.195 2.05 9.271 7.733 4.308 4.267-4.308 1.172-6.498-2.74-7.078a8.741 8.741 0 0 1-.415-.056c.14.017.279.036.415.056 2.67.297 5.568-.628 6.383-3.364.246-.828.624-5.79.624-6.478 0-.69-.139-1.861-.902-2.206-.659-.298-1.664-.62-4.3 1.24C16.046 4.748 13.087 8.687 12 10.8Z"/>
    </symbol>
    <symbol id="linkedin" viewBox="0 0 448 512" fill="currentColor">
        <path d="M416 32H31.9C14.3 32 0 46.5 0 64.3v383.4C0 465.5 14.3 480 31.9 480H416c17.6 0 32-14.5 32-32.3V64.3c0-17.8-14.4-32.3-32-32.3zM135.4 416H69V202.2h66.5V416zm-33.2-243c-21.3 0-38.5-17.3-38.5-38.5S80.9 96 102.2 96c21.2 0 38.5 17.3 38.5 38.5 0 21.3-17.2 38.5-38.5 38.5zm282.1 243h-66.4V312c0-24.8-.5-56.7-34.5-56.7-34.6 0-39.9 27-39.9 54.9V416h-66.4V202.2h63.7v29.2h.9c8.9-16.8 30.6-34.5 62.9-34.5 67.2 0 79.7 44.3 79.7 101.9V416z"/>
    </symbol>
    <symbol id="rss" viewBox="0 0 24 24" fill="none" stroke="currentColor" stroke-width="2" stroke-linecap="round" stroke-linejoin="round">
        <path d="M4 11a9 9 0 0 1 9 9"/>
        <path d="M4 4a16 16 0 0 1 16 16"/>
        <circle cx="5" cy="19" r="1"/>
    </symbol>
    <symbol id="menu" viewBox="0 0 24 24" fill="none" stroke="currentColor" stroke-width="2" stroke-linecap="round" stroke-linejoin="round">
        <path d="M4 5h16"/>
        <path d="M4 12h16"/>
        <path d="M4 19h16"/>
    </symbol>
    <symbol id="x" viewBox="0 0 24 24" fill="none" stroke="currentColor" stroke-width="2" stroke-linecap="round" stroke-linejoin="round">
        <path d="M18 6 6 18"/>
        <path d="m6 6 12 12"/>
    </symbol>
</svg>
