<?xml version="1.0" standalone="no"?>
<!DOCTYPE svg PUBLIC "-//W3C//DTD SVG 20010904//EN"
 "http://www.w3.org/TR/2001/REC-SVG-20010904/DTD/svg10.dtd">
<svg version="1.0" xmlns="http://www.w3.org/2000/svg"
 width="512.000000pt" height="512.000000pt" viewBox="0 0 512.000000 512.000000"
 preserveAspectRatio="xMidYMid meet">
<metadata>
Created by potrace 1.11, written by Peter Selinger 2001-2013
</metadata>
<g transform="translate(0.000000,512.000000) scale(0.100000,-0.100000)"
fill="#000000" stroke="none">
<path d="M0 2560 l0 -2560 2560 0 2560 0 0 2560 0 2560 -2560 0 -2560 0 0
-2560z m2224 1371 c5 -7 256 -2484 256 -2521 0 -7 -87 -10 -264 -10 l-264 0
-6 38 c-3 20 -13 151 -23 290 l-17 252 -345 -2 -346 -3 -110 -285 -111 -285
-272 -3 c-258 -2 -272 -1 -264 15 5 10 245 576 532 1258 288 682 527 1246 533
1253 7 9 90 12 353 12 188 0 345 -4 348 -9z m2456 0 c0 -12 -59 -400 -65 -428
l-5 -23 -535 0 -535 0 -5 -22 c-3 -13 -21 -124 -40 -248 -20 -124 -38 -237
-41 -252 l-6 -28 477 0 477 0 -5 -22 c-3 -13 -20 -116 -38 -230 l-33 -208
-475 0 -476 0 -44 -288 c-24 -158 -46 -295 -49 -304 -4 -17 26 -18 532 -18
458 0 536 -2 536 -14 0 -15 -56 -369 -66 -418 l-6 -28 -799 0 c-595 0 -799 3
-799 11 0 14 388 2474 395 2507 l5 22 800 0 c476 0 800 -4 800 -9z"/>
<path d="M1797 3540 c-4 -8 -22 -72 -42 -142 -26 -96 -210 -589 -372 -995 -4
-10 48 -13 240 -13 135 0 248 3 250 8 2 4 -9 178 -25 387 -15 209 -32 468 -36
575 -5 107 -11 188 -15 180z"/>
</g>
</svg>
