<?xml version="1.0" standalone="no"?>
<!DOCTYPE svg PUBLIC "-//W3C//DTD SVG 20010904//EN"
 "http://www.w3.org/TR/2001/REC-SVG-20010904/DTD/svg10.dtd">
<svg version="1.0" xmlns="http://www.w3.org/2000/svg"
 width="512.000000pt" height="512.000000pt" viewBox="0 0 512.000000 512.000000"
 preserveAspectRatio="xMidYMid meet">
<metadata>
Created by potrace 1.11, written by Peter Selinger 2001-2013
</metadata>
<g transform="translate(0.000000,512.000000) scale(0.100000,-0.100000)"
fill="#000000" stroke="none">
<path d="M0 2560 l0 -2560 2560 0 2560 0 0 2560 0 2560 -2560 0 -2560 0 0
-2560z m2175 1188 c10 -77 225 -2158 225 -2183 l0 -25 -170 0 c-168 0 -170 0
-174 23 -3 12 -15 141 -26 287 -12 146 -23 271 -25 278 -4 10 -76 12 -336 10
l-331 -3 -120 -297 -121 -298 -178 0 -179 0 15 37 c98 234 941 2191 948 2201
7 9 67 12 238 12 l228 0 6 -42z m2207 37 c4 -5 -24 -217 -37 -272 l-5 -23
-505 0 -505 0 -5 -22 c-9 -39 -95 -582 -95 -600 0 -17 28 -18 451 -18 l451 0
-6 -27 c-3 -16 -12 -77 -21 -138 -9 -60 -19 -118 -21 -127 -5 -17 -38 -18
-456 -20 l-452 -3 -52 -325 c-29 -179 -53 -335 -53 -347 l-1 -23 505 0 505 0
-5 -22 c-2 -13 -12 -72 -20 -133 -9 -60 -19 -118 -21 -127 -5 -17 -46 -18
-681 -18 l-675 0 6 33 c3 17 82 518 176 1112 94 594 173 1086 175 1093 3 9
147 12 673 12 368 0 671 -2 674 -5z"/>
<path d="M1856 3434 c-21 -63 -120 -319 -221 -567 l-183 -452 261 -3 c143 -1
262 0 265 3 3 3 -11 211 -32 463 -20 251 -36 505 -36 565 0 59 -4 107 -8 107
-4 0 -25 -52 -46 -116z"/>
</g>
</svg>
